<?xml version="1.0" standalone="no"?>
<!DOCTYPE svg PUBLIC "-//W3C//DTD SVG 20010904//EN"
 "http://www.w3.org/TR/2001/REC-SVG-20010904/DTD/svg10.dtd">
<svg version="1.0" xmlns="http://www.w3.org/2000/svg"
 width="512.000000pt" height="512.000000pt" viewBox="0 0 512.000000 512.000000"
 preserveAspectRatio="xMidYMid meet">

<g transform="translate(0.000000,512.000000) scale(0.100000,-0.100000)"
fill="#000000" stroke="none">
<path d="M2370 5113 c-371 -35 -653 -114 -961 -269 -245 -122 -444 -268 -655
-478 -224 -225 -366 -423 -500 -701 -158 -326 -237 -650 -251 -1020 -15 -426
73 -832 263 -1214 133 -269 271 -459 488 -677 221 -220 412 -357 681 -489 188
-92 309 -137 500 -185 500 -126 1002 -102 1490 71 149 53 407 182 540 271 365
243 667 578 866 963 181 348 271 694 286 1090 15 426 -73 832 -263 1214 -124
250 -263 447 -458 648 -216 224 -428 378 -711 518 -296 146 -572 225 -900 255
-102 9 -333 11 -415 3z m-143 -1626 c142 -48 240 -139 295 -275 19 -49 23 -75
23 -187 0 -116 -3 -136 -24 -183 -29 -64 -111 -142 -170 -162 -47 -15 -54 -30
-13 -30 42 0 126 -46 168 -92 124 -138 152 -429 59 -626 -46 -98 -125 -177
-225 -225 -146 -70 -144 -70 -752 -74 l-548 -4 0 946 0 946 553 -3 552 -4 82
-27z m1563 -197 l0 -120 -387 2 -388 3 -3 104 c-1 58 0 111 2 118 4 10 81 13
391 13 l385 0 0 -120z m-157 -279 c108 -28 170 -64 253 -146 126 -125 184
-282 187 -510 l2 -130 -489 -3 -489 -2 6 -54 c6 -62 37 -139 70 -175 89 -96
270 -127 421 -71 65 25 120 82 133 138 l9 37 162 3 162 2 0 -49 c0 -64 -32
-165 -71 -224 -64 -98 -183 -171 -337 -209 -112 -27 -317 -29 -437 -3 -211 45
-355 153 -440 330 -57 119 -78 212 -77 350 2 321 162 586 417 689 52 21 83 29
205 50 55 10 238 -4 313 -23z"/>
<path d="M1470 2969 l0 -210 293 3 c267 3 294 5 320 22 45 30 60 71 65 172 5
110 -7 152 -54 194 l-35 30 -294 0 -295 0 0 -211z"/>
<path d="M1470 2219 l0 -250 303 3 302 3 47 27 c59 35 89 94 96 187 8 122 -35
219 -119 261 -35 19 -60 20 -334 20 l-295 0 0 -251z"/>
<path d="M3330 2751 c-55 -18 -108 -52 -144 -91 -42 -46 -86 -132 -86 -167 l0
-23 306 0 307 0 -6 49 c-11 91 -66 174 -142 214 -43 22 -188 34 -235 18z"/>
</g>
</svg>
