<?xml version="1.0" standalone="no"?>
<!DOCTYPE svg PUBLIC "-//W3C//DTD SVG 20010904//EN"
 "http://www.w3.org/TR/2001/REC-SVG-20010904/DTD/svg10.dtd">
<svg version="1.0" xmlns="http://www.w3.org/2000/svg"
 width="512.000000pt" height="512.000000pt" viewBox="0 0 512.000000 512.000000"
 preserveAspectRatio="xMidYMid meet">

<g transform="translate(0.000000,512.000000) scale(0.100000,-0.100000)"
fill="#000000" stroke="none">
<path d="M2370 5113 c-371 -35 -653 -114 -961 -269 -406 -203 -782 -548 -1029
-944 -179 -286 -309 -655 -362 -1025 -17 -118 -17 -512 0 -630 42 -295 120
-553 242 -800 137 -280 272 -468 494 -691 221 -220 412 -357 681 -489 188 -92
309 -137 500 -185 500 -126 1002 -102 1490 71 149 53 407 182 540 271 365 243
667 578 866 963 181 348 271 694 286 1090 15 426 -73 832 -263 1214 -124 250
-263 447 -458 648 -216 224 -428 378 -711 518 -296 146 -572 225 -900 255
-102 9 -333 11 -415 3z m341 -954 c273 -27 514 -112 735 -258 607 -401 868
-1158 638 -1851 -113 -338 -339 -634 -638 -831 -478 -315 -1091 -353 -1598
-98 -324 162 -567 405 -727 725 -256 512 -216 1134 105 1609 330 490 907 764
1485 704z"/>
<path d="M2330 3914 c-47 -9 -86 -17 -88 -19 -1 -1 46 -71 105 -156 120 -172
240 -360 335 -528 35 -61 69 -111 75 -111 22 0 194 78 277 126 45 25 117 72
161 103 88 62 265 233 265 256 0 22 -159 136 -269 193 -105 55 -234 101 -351
127 -109 24 -399 29 -510 9z"/>
<path d="M1886 3755 c-239 -136 -439 -348 -557 -590 -48 -99 -92 -220 -105
-291 l-7 -36 134 6 c184 9 351 24 494 42 204 27 613 109 632 127 15 15 -481
787 -506 787 -4 0 -42 -20 -85 -45z"/>
<path d="M3567 3367 c-128 -146 -335 -296 -565 -410 -79 -39 -141 -75 -139
-81 5 -11 110 -248 112 -254 1 -1 71 3 155 9 169 13 431 2 615 -26 55 -9 120
-18 144 -22 l44 -6 -6 91 c-7 101 -34 232 -66 332 -33 98 -124 276 -185 358
l-53 73 -56 -64z"/>
<path d="M2485 2769 c-291 -84 -722 -147 -1137 -164 l-158 -7 0 -82 c0 -213
74 -465 197 -668 50 -83 138 -198 152 -198 4 0 12 10 18 23 23 49 168 232 265
333 241 251 522 438 796 529 48 17 82 33 82 41 0 17 -102 224 -110 223 -3 -1
-50 -14 -105 -30z"/>
<path d="M3140 2413 c-87 -9 -84 3 -34 -146 87 -256 214 -741 214 -815 0 -12
6 -22 13 -22 20 0 196 150 249 213 154 180 255 370 308 575 33 131 36 125 -77
151 -158 36 -296 51 -473 49 -91 -1 -181 -3 -200 -5z"/>
<path d="M2679 2291 c-268 -110 -497 -260 -688 -451 -93 -93 -202 -231 -247
-313 l-27 -50 24 -19 c52 -41 210 -130 289 -164 309 -130 671 -140 988 -28 64
23 72 29 72 52 0 44 -69 339 -125 532 -54 187 -149 469 -163 481 -4 4 -59 -14
-123 -40z"/>
</g>
</svg>
