<?xml version="1.0" standalone="no"?>
<!DOCTYPE svg PUBLIC "-//W3C//DTD SVG 20010904//EN"
 "http://www.w3.org/TR/2001/REC-SVG-20010904/DTD/svg10.dtd">
<svg version="1.0" xmlns="http://www.w3.org/2000/svg"
 width="512.000000pt" height="512.000000pt" viewBox="0 0 512.000000 512.000000"
 preserveAspectRatio="xMidYMid meet">

<g transform="translate(0.000000,512.000000) scale(0.100000,-0.100000)"
fill="#000000" stroke="none">
<path d="M2321 5110 c-868 -84 -1644 -610 -2037 -1382 -139 -273 -221 -536
-266 -853 -20 -140 -17 -504 6 -660 39 -278 121 -541 247 -794 249 -502 647
-900 1150 -1150 815 -406 1779 -350 2539 147 297 194 579 482 771 788 74 116
184 342 234 478 51 138 110 376 131 531 23 157 26 521 6 660 -59 415 -191 769
-410 1099 -92 140 -185 254 -315 385 -399 403 -895 653 -1462 737 -122 18
-466 26 -594 14z m1775 -1331 c33 -20 64 -72 64 -107 0 -26 -498 -2229 -512
-2265 -24 -62 -116 -107 -182 -88 -19 5 -208 126 -419 270 -212 144 -388 261
-392 261 -3 0 -88 -78 -188 -173 -231 -219 -228 -217 -288 -217 -42 0 -55 5
-84 33 -30 29 -47 72 -171 437 -75 223 -142 410 -148 417 -6 6 -180 57 -386
113 -338 91 -378 104 -402 131 -18 18 -28 40 -28 59 0 71 -25 60 1055 449 550
197 1212 436 1470 529 259 93 479 172 490 175 31 8 87 -3 121 -24z"/>
<path d="M2736 2895 c-446 -256 -813 -471 -818 -477 -4 -7 -8 -25 -8 -39 0
-34 215 -662 228 -667 13 -4 16 14 42 243 12 99 23 190 26 202 3 15 236 212
692 584 378 309 690 567 694 573 14 20 3 41 -22 43 -17 2 -278 -143 -834 -462z"/>
</g>
</svg>
